<?xml version="1.0" encoding="UTF-8" standalone="no"?>
<svg xmlns="http://www.w3.org/2000/svg" width="200" height="250" viewBox="0 0 200 250">
  <!-- 安全帽 -->
  <path d="M70,50 C70,35 90,25 110,35 C130,25 150,35 150,50 L150,70 L70,70 Z" fill="#FFD700" />
  
  <!-- 脸 -->
  <circle cx="110" cy="90" r="30" fill="#FFCC99" />
  
  <!-- 眼睛 -->
  <circle cx="95" cy="80" r="5" fill="#000000" />
  <circle cx="125" cy="80" r="5" fill="#000000" />
  
  <!-- 微笑 -->
  <path d="M95,100 Q110,115 125,100" fill="none" stroke="#000000" stroke-width="3" />
  
  <!-- 工作服 -->
  <path d="M70,120 L70,220 L90,220 L90,180 L130,180 L130,220 L150,220 L150,120 Q110,130 70,120 Z" fill="#CD7F32" />
  
  <!-- 安全反光条 -->
  <rect x="70" y="140" width="80" height="10" fill="#FFD700" />
  
  <!-- 手臂 -->
  <path d="M150,140 L180,120 L185,130 L155,150 Z" fill="#FFCC99" />
  <path d="M70,140 L40,120 L35,130 L65,150 Z" fill="#FFCC99" />
  
  <!-- 工具 -->
  <path d="M180,120 L200,110 L205,120 L185,130 Z" fill="#333333" />
  
  <!-- 安全鞋 -->
  <path d="M90,220 L70,230 L70,240 L90,240 Z" fill="#333333" />
  <path d="M130,220 L150,230 L150,240 L130,240 Z" fill="#333333" />
</svg> 